<?xml version="1.0" encoding="UTF-8"?>
<svg version="1.1" xmlns="http://www.w3.org/2000/svg" width="200" height="200">
<path d="M0 0 C66 0 132 0 200 0 C200 66 200 132 200 200 C134 200 68 200 0 200 C0 134 0 68 0 0 Z " fill="transparent" transform="translate(0,0)"/>
<path d="M0 0 C0.99 0 1.98 0 3 0 C4.84015498 3.2878978 6.67095047 6.58091326 8.5 9.875 C9.02464844 10.81214844 9.54929687 11.74929687 10.08984375 12.71484375 C10.58613281 13.61074219 11.08242187 14.50664062 11.59375 15.4296875 C12.05458984 16.25710449 12.51542969 17.08452148 12.99023438 17.93701172 C14 20 14 20 14 22 C17.37204446 20.31397777 18.36155891 16.53489739 19.9375 13.25 C22.13369035 8.7190841 24.31800073 4.27102078 27 0 C28.32 0.33 29.64 0.66 31 1 C32.12862175 6.36095333 32.09688221 11.55306686 32 17 C31.34 17 30.68 17 30 17 C29.34 14.36 28.68 11.72 28 9 C27.34 9 26.68 9 26 9 C25.75507812 9.83789062 25.51015625 10.67578125 25.2578125 11.5390625 C23.838539 15.44426847 21.98142234 18.80971271 19.875 22.375 C19.50246094 23.01566406 19.12992188 23.65632813 18.74609375 24.31640625 C17.83565998 25.88048477 16.91851809 27.44065534 16 29 C14 28 14 28 12 26 C13.11854586 29.72614153 13.11854586 29.72614153 16 32 C16.26941406 31.29359375 16.53882812 30.5871875 16.81640625 29.859375 C18.0449637 26.89137482 19.43099472 24.0866766 20.9375 21.25 C21.44152344 20.28578125 21.94554688 19.3215625 22.46484375 18.328125 C24 16 24 16 27 15 C28.80996216 20.65755469 30.35729017 26.0870696 31 32 C31 27.38 31 22.76 31 18 C35.64786551 22.64786551 36.11184303 28.67808238 36.125 35.125 C36.08375 36.07375 36.0425 37.0225 36 38 C33.36 38 30.72 38 28 38 C26.41744803 33.67435795 25.54855348 29.571279 25 25 C21.25876024 29.2954975 18.65848126 33.99900452 16 39 C12.97189452 37.94016308 12.03338055 37.05320983 10.296875 34.28515625 C9.78640625 33.22167969 9.2759375 32.15820312 8.75 31.0625 C8.22921875 30.00160156 7.7084375 28.94070312 7.171875 27.84765625 C6 25 6 25 6 22 C5.34 22 4.68 22 4 22 C3.67 26.95 3.34 31.9 3 37 C-0.1964086 38.06546953 -2.65747276 38.07427838 -6 38 C-6.35541118 30.84621088 -5.17425157 24.09323042 -3.91870117 17.0612793 C-3.55923297 15.04416747 -3.21152385 13.02527119 -2.86523438 11.00585938 C-1.13585283 1.13585283 -1.13585283 1.13585283 0 0 Z " fill="#387563" transform="translate(96,143)"/>
<path d="M0 0 C7.92 0 15.84 0 24 0 C24 2.64 24 5.28 24 8 C19.05 8 14.1 8 9 8 C9 9.98 9 11.96 9 14 C13.29 14 17.58 14 22 14 C22 16.64 22 19.28 22 22 C17.71 22 13.42 22 9 22 C9 24.31 9 26.62 9 29 C13.95 29 18.9 29 24 29 C24 31.64 24 34.28 24 37 C18.06 37 12.12 37 6 37 C6.33 36.01 6.66 35.02 7 34 C11.95 33.505 11.95 33.505 17 33 C13.04 33 9.08 33 5 33 C5.00523682 32.12674072 5.01047363 31.25348145 5.01586914 30.35375977 C5.03287751 27.12410727 5.04543369 23.89447755 5.05493164 20.66479492 C5.0599708 19.26504772 5.06680216 17.8653058 5.07543945 16.46557617 C5.0875232 14.45754223 5.09269807 12.44947043 5.09765625 10.44140625 C5.10289307 9.23170166 5.10812988 8.02199707 5.11352539 6.77563477 C5.31775285 4.09187983 5.31775285 4.09187983 4 3 C4.00523682 3.95890137 4.01047363 4.91780273 4.01586914 5.90576172 C4.03394679 9.45783559 4.04544215 13.00990537 4.05493164 16.56201172 C4.05996552 18.10043013 4.06679308 19.63884375 4.07543945 21.17724609 C4.08754639 23.38640526 4.09323769 25.59550126 4.09765625 27.8046875 C4.10281754 28.49432587 4.10797882 29.18396423 4.11329651 29.89450073 C4.11387171 34.77225659 4.11387171 34.77225659 3 37 C2.01 37 1.02 37 0 37 C0 24.79 0 12.58 0 0 Z " fill="#437C6B" transform="translate(59,144)"/>
<path d="M0 0 C0.33 0.66 0.66 1.32 1 2 C1.66 2 2.32 2 3 2 C3 2.66 3 3.32 3 4 C3.99 4.33 4.98 4.66 6 5 C7.53515625 7.46875 7.53515625 7.46875 9.0625 10.5 C10.80258773 14.45978058 10.80258773 14.45978058 14 17 C14.26941406 16.29359375 14.53882812 15.5871875 14.81640625 14.859375 C16.0449637 11.89137482 17.43099472 9.0866766 18.9375 6.25 C19.44152344 5.28578125 19.94554688 4.3215625 20.46484375 3.328125 C22 1 22 1 25 0 C26.80996216 5.65755469 28.35729017 11.0870696 29 17 C29 12.38 29 7.76 29 3 C33.64786551 7.64786551 34.11184303 13.67808238 34.125 20.125 C34.08375 21.07375 34.0425 22.0225 34 23 C31.36 23 28.72 23 26 23 C24.41744803 18.67435795 23.54855348 14.571279 23 10 C19.25876024 14.2954975 16.65848126 18.99900452 14 24 C10.97189452 22.94016308 10.03338055 22.05320983 8.296875 19.28515625 C7.78640625 18.22167969 7.2759375 17.15820312 6.75 16.0625 C5.96882813 14.47115234 5.96882813 14.47115234 5.171875 12.84765625 C4 10 4 10 4 7 C3.34 7 2.68 7 2 7 C2.020625 7.94875 2.04125 8.8975 2.0625 9.875 C2 13 2 13 1 15 C0.34 14.67 -0.32 14.34 -1 14 C-1.02705729 12.22925083 -1.04642195 10.45838289 -1.0625 8.6875 C-1.07410156 7.70136719 -1.08570312 6.71523437 -1.09765625 5.69921875 C-1 3 -1 3 0 0 Z " fill="#3F7968" transform="translate(98,158)"/>
<path d="M0 0 C0.33 0 0.66 0 1 0 C1 2.64 1 5.28 1 8 C1.66 8 2.32 8 3 8 C3 6.35 3 4.7 3 3 C6.9069283 4.30230943 7.23708974 5.73116269 9.125 9.3125 C9.64320312 10.27800781 10.16140625 11.24351562 10.6953125 12.23828125 C11.78164401 14.53779136 12.51677111 16.51903214 13 19 C10 17 10 17 9 14 C8.34 13.67 7.68 13.34 7 13 C7 12.34 7 11.68 7 11 C6.01 11.33 5.02 11.66 4 12 C3.97312721 13.81242052 3.95366285 15.62495233 3.9375 17.4375 C3.92589844 18.44683594 3.91429688 19.45617187 3.90234375 20.49609375 C3.71387324 22.94021067 3.71387324 22.94021067 5 24 C5.04092937 26.33297433 5.04241723 28.66705225 5 31 C1.8035914 32.06546953 -0.65747276 32.07427838 -4 32 C-4.27289722 24.97289671 -3.22312164 18.40898441 -2 11.5 C-1.80921875 10.39140625 -1.6184375 9.2828125 -1.421875 8.140625 C-0.95383586 5.42599799 -0.47974117 2.71257905 0 0 Z " fill="#497F6F" transform="translate(94,149)"/>
<path d="M0 0 C4.95 0 9.9 0 15 0 C12.60236815 2.39763185 11.66726502 2.34280586 8.375 2.625 C7.55773437 2.69976562 6.74046875 2.77453125 5.8984375 2.8515625 C5.27195312 2.90054688 4.64546875 2.94953125 4 3 C4.00523682 3.95890137 4.01047363 4.91780273 4.01586914 5.90576172 C4.03394679 9.45783559 4.04544215 13.00990537 4.05493164 16.56201172 C4.05996552 18.10043013 4.06679308 19.63884375 4.07543945 21.17724609 C4.08754639 23.38640526 4.09323769 25.59550126 4.09765625 27.8046875 C4.10281754 28.49432587 4.10797882 29.18396423 4.11329651 29.89450073 C4.11387171 34.77225659 4.11387171 34.77225659 3 37 C2.01 37 1.02 37 0 37 C0 24.79 0 12.58 0 0 Z " fill="#3A7462" transform="translate(59,144)"/>
<path d="M0 0 C0 2.64 0 5.28 0 8 C-4.95 8 -9.9 8 -15 8 C-15 9.98 -15 11.96 -15 14 C-15.33 14 -15.66 14 -16 14 C-16 12.02 -16 10.04 -16 8 C-16.66 8 -17.32 8 -18 8 C-17.814375 8.7425 -17.62875 9.485 -17.4375 10.25 C-17 13 -17 13 -18 17 C-14.04 17 -10.08 17 -6 17 C-6 17.33 -6 17.66 -6 18 C-10.29 18 -14.58 18 -19 18 C-19.02692484 15.70839681 -19.04636124 13.41670454 -19.0625 11.125 C-19.07410156 9.84882813 -19.08570313 8.57265625 -19.09765625 7.2578125 C-19 4 -19 4 -18 2 C-12.1348782 -0.12086994 -6.15781799 -0.19548629 0 0 Z " fill="#3E7967" transform="translate(83,144)"/>
<path d="M0 0 C1.17825358 0.90172468 2.34231577 1.82201502 3.5 2.75 C4.1496875 3.26046875 4.799375 3.7709375 5.46875 4.296875 C7 6 7 6 7 10 C5.46875 11.703125 5.46875 11.703125 3.5 13.25 C2.8503125 13.77078125 2.200625 14.2915625 1.53125 14.828125 C1.0259375 15.21484375 0.520625 15.6015625 0 16 C-1.17262904 14.88121617 -2.33795138 13.75476949 -3.5 12.625 C-4.1496875 11.99851562 -4.799375 11.37203125 -5.46875 10.7265625 C-7 9 -7 9 -7 7 C-6.34 7 -5.68 7 -5 7 C-4.731875 6.401875 -4.46375 5.80375 -4.1875 5.1875 C-3.00913692 3.01683117 -1.76939019 1.69182788 0 0 Z " fill="#377461" transform="translate(95,10)"/>
<path d="M0 0 C0.66 0 1.32 0 2 0 C3.76462683 3.08809695 4 4.23312136 4 8 C4.66 8 5.32 8 6 8 C6 6.02 6 4.04 6 2 C6.33 2 6.66 2 7 2 C7 4.64 7 7.28 7 10 C6.67 10 6.34 10 6 10 C6 15.28 6 20.56 6 26 C3.72742516 23.72742516 3.62554222 22.94668159 3.1484375 19.8671875 C3.01953125 19.06152344 2.890625 18.25585938 2.7578125 17.42578125 C2.63148437 16.58402344 2.50515625 15.74226562 2.375 14.875 C2.2409375 14.02550781 2.106875 13.17601562 1.96875 12.30078125 C1.63855014 10.20165356 1.31832741 8.10096089 1 6 C-2.04069056 8.78837794 -3.88094854 11.33248026 -5.625 15.0625 C-6.96349035 17.89720091 -8.25401797 20.38102695 -10 23 C-13 22 -13 22 -15 19 C-14.505 17.515 -14.505 17.515 -14 16 C-12.68 16.99 -11.36 17.98 -10 19 C-6.7 12.73 -3.4 6.46 0 0 Z " fill="#92AEA5" transform="translate(122,152)"/>
<path d="M0 0 C5.61 0 11.22 0 17 0 C17 0.33 17 0.66 17 1 C11.72 1 6.44 1 1 1 C1 5.62 1 10.24 1 15 C5.29 15 9.58 15 14 15 C14 15.33 14 15.66 14 16 C9.71 16 5.42 16 1 16 C1 20.62 1 25.24 1 30 C3.083125 29.79375 5.16625 29.5875 7.3125 29.375 C13.625 28.75 13.625 28.75 17 31 C10.565 31.495 10.565 31.495 4 32 C4 32.33 4 32.66 4 33 C6.64 33 9.28 33 12 33 C11.67 33.66 11.34 34.32 11 35 C6.38 35 1.76 35 -3 35 C-2.01 34.505 -2.01 34.505 -1 34 C-0.67 22.78 -0.34 11.56 0 0 Z " fill="#EAEBEB" transform="translate(63,147)"/>
<path d="M0 0 C3.35620271 1.38877354 5.07298728 2.91677965 7 6 C7 6.66 7 7.32 7 8 C5.25 9.5078125 5.25 9.5078125 3 11.125 C2.2575 11.66382813 1.515 12.20265625 0.75 12.7578125 C0.1725 13.16773438 -0.405 13.57765625 -1 14 C-2.65 12.02 -4.3 10.04 -6 8 C-4.55746343 4.63408134 -2.66735273 2.48952921 0 0 Z " fill="#33715E" transform="translate(107,25)"/>
<path d="M0 0 C3.35915158 1.43963639 5.71624938 3.12416589 8 6 C8.0625 8 8.0625 8 7 10 C4.4375 12.25 4.4375 12.25 2 14 C-0.31 12.02 -2.62 10.04 -5 8 C-3.47524303 4.95048605 -2.07114674 2.63600494 0 0 Z " fill="#33715F" transform="translate(82,25)"/>
<path d="M0 0 C3.87132028 0.57352893 6.08172796 2.48704352 9 5 C8.45773019 8.79588866 6.79872437 10.47211993 4 13 C1.69 11.02 -0.62 9.04 -3 7 C-1.125 2.25 -1.125 2.25 0 0 Z " fill="#5A8D7E" transform="translate(70,40)"/>
<path d="M0 0 C0.99 1.98 1.98 3.96 3 6 C2.07213211 7.00894372 1.13231567 8.00690907 0.1875 9 C-0.59560547 9.8353125 -0.59560547 9.8353125 -1.39453125 10.6875 C-3 12 -3 12 -6 12 C-7.75 10.25 -7.75 10.25 -9 8 C-9 6 -9 6 -8 4 C-3.77777778 0 -3.77777778 0 0 0 Z " fill="#598C7D" transform="translate(121,40)"/>
<path d="M0 0 C1.98 1.65 3.96 3.3 6 5 C5.65120368 8.25543229 4.97866739 9.01873107 2.4375 11.25 C1.633125 11.8275 0.82875 12.405 0 13 C-2.5625 10.75 -2.5625 10.75 -5 8 C-5.09328009 4.92175717 -4.0196554 4.02144226 -1.9375 1.75 C-1.298125 1.1725 -0.65875 0.595 0 0 Z " fill="#357360" transform="translate(95,38)"/>
<path d="M0 0 C0.99 2.31 1.98 4.62 3 7 C1.8803014 8.00593243 0.7540588 9.0045849 -0.375 10 C-1.00148437 10.556875 -1.62796875 11.11375 -2.2734375 11.6875 C-4 13 -4 13 -6 13 C-7.75 10.75 -7.75 10.75 -9 8 C-8.0430992 4.05278419 -4.19518391 0 0 0 Z " fill="#5D8F80" transform="translate(130,53)"/>
<path d="M0 0 C3.87132028 0.57352893 6.08172796 2.48704352 9 5 C7.125 9.75 7.125 9.75 6 12 C3.04590299 10.62845496 0.55991624 9.01136276 -2 7 C-1.125 2.25 -1.125 2.25 0 0 Z " fill="#5B8D7E" transform="translate(61,54)"/>
<path d="M0 0 C4.29 0 8.58 0 13 0 C13 2.64 13 5.28 13 8 C7.06 8 1.12 8 -5 8 C-4.67 7.01 -4.34 6.02 -4 5 C-3.22914062 4.93941406 -2.45828125 4.87882813 -1.6640625 4.81640625 C-0.66117187 4.73261719 0.34171875 4.64882812 1.375 4.5625 C2.37273437 4.48128906 3.37046875 4.40007812 4.3984375 4.31640625 C6.97927613 4.15034374 6.97927613 4.15034374 9 3 C9 2.34 9 1.68 9 1 C6.03 1 3.06 1 0 1 C0 0.67 0 0.34 0 0 Z " fill="#4C8171" transform="translate(70,173)"/>
<path d="M0 0 C2.5625 2.25 2.5625 2.25 5 5 C5 7.6811465 4.26428532 8.66363687 2.625 10.75 C1 12 1 12 -2 12 C-3.75 10.25 -3.75 10.25 -5 8 C-4.90530858 4.96987448 -4.00388172 4.0042346 -1.9375 1.75 C-1.298125 1.1725 -0.65875 0.595 0 0 Z " fill="#5A8D7E" transform="translate(106,51)"/>
<path d="M0 0 C1.98 1.65 3.96 3.3 6 5 C4.79618552 7.49361571 3.54571278 9.68143083 2 12 C1.01 12 0.02 12 -1 12 C-3.1875 9.5 -3.1875 9.5 -5 7 C-3.70700306 4.11562221 -2.34058637 2.12780579 0 0 Z " fill="#598C7D" transform="translate(95,62)"/>
<path d="M0 0 C3.9069283 1.30230943 4.23708974 2.73116269 6.125 6.3125 C6.64320312 7.27800781 7.16140625 8.24351562 7.6953125 9.23828125 C8.78164401 11.53779136 9.51677111 13.51903214 10 16 C7 14 7 14 6 11 C5.34 10.67 4.68 10.34 4 10 C4 9.34 4 8.68 4 8 C3.01 8.33 2.02 8.66 1 9 C0.01 14.61 -0.98 20.22 -2 26 C-2.33 26 -2.66 26 -3 26 C-3.33 23.69 -3.66 21.38 -4 19 C-3.34 19 -2.68 19 -2 19 C-1.93941406 18.29875 -1.87882812 17.5975 -1.81640625 16.875 C-1.31802826 11.23182765 -0.74178324 5.61635883 0 0 Z " fill="#BDCBC7" transform="translate(97,152)"/>
<path d="M0 0 C4.62 0 9.24 0 14 0 C14 0.33 14 0.66 14 1 C10.33694766 1.74926071 7.57644848 2.2380014 4 1 C4 1.66 4 2.32 4 3 C8.95 3 13.9 3 19 3 C19 3.33 19 3.66 19 4 C14.05 4 9.1 4 4 4 C4 5.98 4 7.96 4 10 C3.67 10 3.34 10 3 10 C3 8.02 3 6.04 3 4 C2.34 4 1.68 4 1 4 C1.185625 4.7425 1.37125 5.485 1.5625 6.25 C2 9 2 9 1 13 C4.96 13 8.92 13 13 13 C13 13.33 13 13.66 13 14 C8.71 14 4.42 14 0 14 C0 9.38 0 4.76 0 0 Z " fill="#668F82" transform="translate(64,148)"/>
<path d="M0 0 C1.25984998 2.07504702 1.98608195 3.55462237 2.0625 6 C0.30432136 9.30951274 -2.71247586 10.32635135 -6 12 C-9 7.25 -9 7.25 -9 5 C-7.5390625 3.7109375 -7.5390625 3.7109375 -5.625 2.375 C-4.99851563 1.92898437 -4.37203125 1.48296875 -3.7265625 1.0234375 C-2 0 -2 0 0 0 Z " fill="#83AA9F" transform="translate(137,67)"/>
<path d="M0 0 C1.98 1.65 3.96 3.3 6 5 C5.38722388 7.96175123 4.74627478 9.38058783 3 12 C0.31546973 11.62971996 -0.8677757 11.12340935 -2.875 9.25 C-4 7 -4 7 -3.3125 4.375 C-2 2 -2 2 0 0 Z " fill="#588C7C" transform="translate(84,51)"/>
<path d="M0 0 C2.95409701 1.37154504 5.44008376 2.98863724 8 5 C7.67 6.65 7.34 8.3 7 10 C5.3125 10.75 5.3125 10.75 3 11 C0.25 9.0625 0.25 9.0625 -2 7 C-1.125 2.25 -1.125 2.25 0 0 Z " fill="#81A99D" transform="translate(54,67)"/>
<path d="M0 0 C3 1 3 1 5 4 C4.875 6 4.875 6 4 8 C1.9375 9.75 1.9375 9.75 0 11 C-2.43270079 10.05830937 -3.72437686 9.47018066 -5.0625 7.1875 C-5 5 -5 5 -2.5625 2.25 C-1.716875 1.5075 -0.87125 0.765 0 0 Z " fill="#5B8E7F" transform="translate(115,64)"/>
<path d="M0 0 C2.88437779 1.29299694 4.87219421 2.65941363 7 5 C6.34 6.65 5.68 8.3 5 10 C0.73173127 10 0.06117568 9.62386487 -3 7 C-2.38722388 4.03824877 -1.74627478 2.61941217 0 0 Z " fill="#5B8E7F" transform="translate(74,64)"/>
<path d="M0 0 C1.32 1.32 2.64 2.64 4 4 C2.70700306 6.88437779 1.34058637 8.87219421 -1 11 C-1.99 10.67 -2.98 10.34 -4 10 C-5.1875 7.4375 -5.1875 7.4375 -6 5 C-4.02 3.35 -2.04 1.7 0 0 Z " fill="#88ADA2" transform="translate(113,85)"/>
<path d="M0 0 C3.57104439 1.87949705 5.54744301 3.17053157 7 7 C6.01 8.32 5.02 9.64 4 11 C1.11562221 9.70700306 -0.87219421 8.34058637 -3 6 C-1.125 1.125 -1.125 1.125 0 0 Z " fill="#86ABA0" transform="translate(77,85)"/>
<path d="M0 0 C1.98 0.495 1.98 0.495 4 1 C5.12862175 6.36095333 5.09688221 11.55306686 5 17 C4.34 17 3.68 17 3 17 C-1.77676538 5.47835991 -1.77676538 5.47835991 0 0 Z " fill="#407968" transform="translate(123,143)"/>
<path d="M0 0 C2.95409701 1.37154504 5.44008376 2.98863724 8 5 C7.34 6.65 6.68 8.3 6 10 C1.73173127 10 1.06117568 9.62386487 -2 7 C-1.125 2.25 -1.125 2.25 0 0 Z " fill="#84AA9F" transform="translate(66,76)"/>
<path d="M0 0 C1.31501363 2.16590481 2.03022952 3.50121292 1.875 6.0625 C0.71737078 8.62582185 -0.56039417 9.63669086 -3 11 C-3.99 10.67 -4.98 10.34 -6 10 C-7.1875 7.4375 -7.1875 7.4375 -8 5 C-2.25 0 -2.25 0 0 0 Z " fill="#83AA9F" transform="translate(125,76)"/>
<path d="M0 0 C1.98 1.65 3.96 3.3 6 5 C5.34 6.65 4.68 8.3 4 10 C0 10 0 10 -2.25 8 C-2.8275 7.34 -3.405 6.68 -4 6 C-2.84826645 3.53199953 -1.95216435 1.95216435 0 0 Z " fill="#5A8D7E" transform="translate(85,74)"/>
<path d="M0 0 C1.65 1.32 3.3 2.64 5 4 C3.70700306 6.88437779 2.34058637 8.87219421 0 11 C-0.99 10.67 -1.98 10.34 -3 10 C-4.1875 7.4375 -4.1875 7.4375 -5 5 C-3.35 3.35 -1.7 1.7 0 0 Z " fill="#588C7C" transform="translate(105,74)"/>
<path d="M0 0 C3.63781875 3.63781875 3.93608295 5.0262415 4.09765625 10.015625 C4.08605469 11.08296875 4.07445312 12.1503125 4.0625 13.25 C4.05347656 14.32765625 4.04445312 15.4053125 4.03515625 16.515625 C4.02355469 17.33546875 4.01195312 18.1553125 4 19 C2.68 18.67 1.36 18.34 0 18 C0 12.06 0 6.12 0 0 Z " fill="#437B6A" transform="translate(127,161)"/>
<path d="M0 0 C3.01111938 4.51667907 3.10067926 7.6639991 3 13 C-0.1964086 14.06546953 -2.65747276 14.07427838 -6 14 C-6 11.36 -6 8.72 -6 6 C-5.67 6 -5.34 6 -5 6 C-4.67 7.65 -4.34 9.3 -4 11 C-3.34 10.01 -2.68 9.02 -2 8 C-1.67 7.67 -1.34 7.34 -1 7 C-0.63239269 4.67182036 -0.29758419 2.3381615 0 0 Z " fill="#578879" transform="translate(96,167)"/>
<path d="M0 0 C1.9375 0.125 1.9375 0.125 4 1 C5.25 3.5625 5.25 3.5625 6 6 C4.35 7.32 2.7 8.64 1 10 C-0.32 8.68 -1.64 7.36 -3 6 C-1.125 1.125 -1.125 1.125 0 0 Z " fill="#5D8E80" transform="translate(94,85)"/>
<path d="M0 0 C0.375 2.75 0.375 2.75 0 6 C-4.84210526 10 -4.84210526 10 -8 10 C-8.33 8.35 -8.66 6.7 -9 5 C-7.87926138 4.16094435 -6.75325453 3.32892169 -5.625 2.5 C-4.99851563 2.0359375 -4.37203125 1.571875 -3.7265625 1.09375 C-2 0 -2 0 0 0 Z " fill="#84AA9F" transform="translate(143,81)"/>
<path d="M0 0 C2.64 1.65 5.28 3.3 8 5 C7.67 6.65 7.34 8.3 7 10 C1.25 8.125 1.25 8.125 -1 7 C-1.04254356 5.00045254 -1.04080783 2.99958364 -1 1 C-0.67 0.67 -0.34 0.34 0 0 Z " fill="#84AA9F" transform="translate(49,81)"/>
<path d="M0 0 C0.66 0 1.32 0 2 0 C1.35253127 3.36837899 0.06124058 5.78858144 -1.75 8.6875 C-4.64069302 13.38662175 -7.35683452 18.1580951 -10 23 C-13 22 -13 22 -15 19 C-14.505 17.515 -14.505 17.515 -14 16 C-12.68 16.99 -11.36 17.98 -10 19 C-6.7 12.73 -3.4 6.46 0 0 Z " fill="#D5DBD9" transform="translate(122,152)"/>
<path d="M0 0 C0.33 1.65 0.66 3.3 1 5 C-4.75 9 -4.75 9 -7 9 C-7.33 7.35 -7.66 5.7 -8 4 C-2.25 0 -2.25 0 0 0 Z " fill="#85AAA0" transform="translate(131,89)"/>
<path d="M0 0 C2.51176427 1.25588213 3.07762884 2.53941692 4.5 4.9375 C5.89882073 7.28734824 7.05533339 9.05533339 9 11 C8.34 11 7.68 11 7 11 C6.34 12.32 5.68 13.64 5 15 C3.96966118 12.87959258 2.95097146 10.75352092 1.9375 8.625 C1.36902344 7.44164062 0.80054687 6.25828125 0.21484375 5.0390625 C-0.18605469 4.03617188 -0.58695312 3.03328125 -1 2 C-0.67 1.34 -0.34 0.68 0 0 Z " fill="#4D8373" transform="translate(103,165)"/>
<path d="M0 0 C0.99 0.99 1.98 1.98 3 3 C1.76210371 6.71368887 0.14775123 7.77354181 -3 10 C-3.66 10 -4.32 10 -5 10 C-5.33 8.35 -5.66 6.7 -6 5 C-4.02 3.35 -2.04 1.7 0 0 Z " fill="#87ACA1" transform="translate(119,96)"/>
<path d="M0 0 C2.9719385 1.12451727 5.33440687 2.22293791 8 4 C7.67 5.65 7.34 7.3 7 9 C4.0280615 7.87548273 1.66559313 6.77706209 -1 5 C-0.67 3.35 -0.34 1.7 0 0 Z " fill="#83AA9F" transform="translate(60,89)"/>
<path d="M0 0 C2.47359354 0.95752008 3.73064878 1.49496645 5 3.875 C5 6 5 6 3.1875 8.25 C1 10 1 10 -1 10 C-3 7 -3 7 -2.75 5 C-2 3 -2 3 0 0 Z " fill="#86ABA0" transform="translate(102,95)"/>
<path d="M0 0 C3.40312738 1.05875074 6.01353231 2.00902154 9 4 C9 5.32 9 6.64 9 8 C4.545 7.01 4.545 7.01 0 6 C0 4.02 0 2.04 0 0 Z " fill="#B4C9C3" transform="translate(46,95)"/>
<path d="M0 0 C1.65 1.32 3.3 2.64 5 4 C4.49396008 6.16874252 4.00016187 7.99967627 3 10 C0.37812506 8.95125002 -0.79371361 8.35068687 -2.25 5.875 C-2.4975 5.25625 -2.745 4.6375 -3 4 C-2.01 2.68 -1.02 1.36 0 0 Z " fill="#84AA9F" transform="translate(87,95)"/>
<path d="M0 0 C0.66 0 1.32 0 2 0 C3.50934217 3.01868434 3.17510672 5.67297229 3 9 C2.01 10.485 2.01 10.485 1 12 C0.67 10.68 0.34 9.36 0 8 C-0.99 8 -1.98 8 -3 8 C-2.25 2.25 -2.25 2.25 0 0 Z " fill="#33725F" transform="translate(121,158)"/>
<path d="M0 0 C3.50339864 1.84389402 5.78524611 3.11278755 7 7 C6.67 7.99 6.34 8.98 6 10 C3.50638429 8.79618552 1.31856917 7.54571278 -1 6 C-1.25 3.4375 -1.25 3.4375 -1 1 C-0.67 0.67 -0.34 0.34 0 0 Z " fill="#84ABA0" transform="translate(71,96)"/>
<path d="M0 0 C0 1.98 0 3.96 0 6 C-2.97 6.66 -5.94 7.32 -9 8 C-8.875 5.6875 -8.875 5.6875 -8 3 C-3.13793103 0 -3.13793103 0 0 0 Z " fill="#B3C8C2" transform="translate(145,95)"/>
<path d="M0 0 C0.66 0 1.32 0 2 0 C2 1.98 2 3.96 2 6 C5.96 6.33 9.92 6.66 14 7 C14 7.66 14 8.32 14 9 C9.38 9 4.76 9 0 9 C0 6.03 0 3.06 0 0 Z " fill="#2B6E5A" transform="translate(65,152)"/>
<path d="M0 0 C0.75 2.25 0.75 2.25 1 5 C-0.8125 7.3125 -0.8125 7.3125 -3 9 C-3.66 9 -4.32 9 -5 9 C-5.75 6.75 -5.75 6.75 -6 4 C-2.86486486 0 -2.86486486 0 0 0 Z " fill="#8BAEA4" transform="translate(110,105)"/>
<path d="M0 0 C2.49415272 0.99766109 3.78740335 1.68616685 5.3125 3.9375 C6 6 6 6 5 9 C2.53199953 7.84826645 0.95216435 6.95216435 -1 5 C-0.625 2.375 -0.625 2.375 0 0 Z " fill="#8CAEA4" transform="translate(81,105)"/>
<path d="M0 0 C1.32 1.32 2.64 2.64 4 4 C3.34 5.65 2.68 7.3 2 9 C1.01 9 0.02 9 -1 9 C-2.1875 6.75 -2.1875 6.75 -3 4 C-1.625 1.6875 -1.625 1.6875 0 0 Z " fill="#87ACA1" transform="translate(95,104)"/>
<path d="M0 0 C0 1.65 0 3.3 0 5 C-5.75 8 -5.75 8 -8 8 C-7.8125 5.6875 -7.8125 5.6875 -7 3 C-2.96551724 0 -2.96551724 0 0 0 Z " fill="#B1C8C1" transform="translate(134,100)"/>
<path d="M0 0 C0.33 0.66 0.66 1.32 1 2 C1.66 2 2.32 2 3 2 C3 2.66 3 3.32 3 4 C3.66 4 4.32 4 5 4 C4.34 5.65 3.68 7.3 3 9 C0.18226246 7.59113123 -1.15868171 5.51646834 -3 3 C-3 2.34 -3 1.68 -3 1 C-2.01 0.67 -1.02 0.34 0 0 Z " fill="#4C8272" transform="translate(109,163)"/>
<path d="M0 0 C3.96 1.98 3.96 1.98 8 4 C8 5.32 8 6.64 8 8 C2.25 6.125 2.25 6.125 0 5 C0 3.35 0 1.7 0 0 Z " fill="#AFC7C0" transform="translate(57,100)"/>
<path d="M0 0 C2 4 2 4 1.25 7.125 C0 10 0 10 -2 12 C-2.99 11.34 -3.98 10.68 -5 10 C-3.35 6.7 -1.7 3.4 0 0 Z " fill="#487F6F" transform="translate(121,146)"/>
<path d="M0 0 C4.95 0 9.9 0 15 0 C12.65828261 2.34171739 11.76939546 2.391923 8.5625 2.75 C7.78003906 2.84796875 6.99757813 2.9459375 6.19140625 3.046875 C4 3 4 3 1 1 C1 3.31 1 5.62 1 8 C0.67 8 0.34 8 0 8 C0 5.36 0 2.72 0 0 Z " fill="#30715E" transform="translate(59,144)"/>
<path d="M0 0 C-0.1875 2.3125 -0.1875 2.3125 -1 5 C-5.03448276 8 -5.03448276 8 -8 8 C-8 6.68 -8 5.36 -8 4 C-2.88888889 0 -2.88888889 0 0 0 Z " fill="#B3C9C3" transform="translate(124,106)"/>
<path d="M0 0 C2.9719385 1.12451727 5.33440687 2.22293791 8 4 C8 5.32 8 6.64 8 8 C5.0280615 6.87548273 2.66559313 5.77706209 0 4 C0 2.68 0 1.36 0 0 Z " fill="#B3CAC3" transform="translate(67,106)"/>
<path d="M0 0 C3 1 3 1 4 3 C4.06950541 4.54023996 4.08452357 6.08334988 4.0625 7.625 C4.05347656 8.44226563 4.04445313 9.25953125 4.03515625 10.1015625 C4.02355469 10.72804688 4.01195313 11.35453125 4 12 C1.77001704 9.77001704 0.38557787 7.83713564 -1 5 C-0.6875 2.1875 -0.6875 2.1875 0 0 Z " fill="#B6CBC5" transform="translate(89,114)"/>
<path d="M0 0 C0.66 0 1.32 0 2 0 C2.75 2.125 2.75 2.125 3 5 C1.125 8.3125 1.125 8.3125 -1 11 C-1.33 11 -1.66 11 -2 11 C-2.25 3.375 -2.25 3.375 0 0 Z " fill="#B5CBC4" transform="translate(100,114)"/>
<path d="M0 0 C1.32 0.33 2.64 0.66 4 1 C4 1.33 4 1.66 4 2 C6.64 2 9.28 2 12 2 C11.67 2.66 11.34 3.32 11 4 C6.38 4 1.76 4 -3 4 C-2.34 3.67 -1.68 3.34 -1 3 C-0.67 2.01 -0.34 1.02 0 0 Z " fill="#B8C5C1" transform="translate(63,178)"/>
<path d="M0 0 C2.49361571 1.20381448 4.68143083 2.45428722 7 4 C7 5.32 7 6.64 7 8 C4.13792848 6.71700242 1.9754912 5.469364 0 3 C0 2.01 0 1.02 0 0 Z " fill="#B5CAC4" transform="translate(78,114)"/>
<path d="M0 0 C-0.54087318 3.78611227 -2.11722332 5.55400767 -5 8 C-5.66 8 -6.32 8 -7 8 C-7 6.68 -7 5.36 -7 4 C-2.77777778 0 -2.77777778 0 0 0 Z " fill="#B5CAC4" transform="translate(113,114)"/>
<path d="M0 0 C0.66 0.33 1.32 0.66 2 1 C1.67 1.66 1.34 2.32 1 3 C1.66 3 2.32 3 3 3 C4.35439668 5.70879335 4.06501451 8.00933268 4 11 C3.34 11 2.68 11 2 11 C1.01 7.7 0.02 4.4 -1 1 C-0.67 0.67 -0.34 0.34 0 0 Z " fill="#2F705C" transform="translate(124,149)"/>
<path d="M0 0 C0.99 0 1.98 0 3 0 C3 2.64 3 5.28 3 8 C1.68 7.67 0.36 7.34 -1 7 C-0.67 4.69 -0.34 2.38 0 0 Z " fill="#30705D" transform="translate(128,172)"/>
<path d="M0 0 C3.375 -0.125 3.375 -0.125 7 0 C7.66 0.66 8.32 1.32 9 2 C5.78548731 3.60725635 2.56387464 3.05748185 -1 3 C-0.67 2.01 -0.34 1.02 0 0 Z " fill="#619082" transform="translate(66,178)"/>
<path d="M0 0 C2.14418558 3.21627837 2.67582137 5.19090105 3 9 C2.34 9.66 1.68 10.32 1 11 C0.34 10.67 -0.32 10.34 -1 10 C-0.67 6.7 -0.34 3.4 0 0 Z " fill="#6B9488" transform="translate(96,167)"/>
<path d="M0 0 C0.66 0.66 1.32 1.32 2 2 C0.68 3.65 -0.64 5.3 -2 7 C-1.67 7.66 -1.34 8.32 -1 9 C-2.32 8.34 -3.64 7.68 -5 7 C-3.70700306 4.11562221 -2.34058637 2.12780579 0 0 Z " fill="#669486" transform="translate(95,62)"/>
<path d="M0 0 C0.66 1.32 1.32 2.64 2 4 C1.01 4.99 0.02 5.98 -1 7 C-1.33 6.34 -1.66 5.68 -2 5 C-2.99 5 -3.98 5 -5 5 C-4.67 3.68 -4.34 2.36 -4 1 C-2.02 1.495 -2.02 1.495 0 2 C0 1.34 0 0.68 0 0 Z " fill="#437B6A" transform="translate(101,148)"/>
<path d="M0 0 C1.16909807 3.50729422 0.85056945 5.44307323 0 9 C-0.99 9.495 -0.99 9.495 -2 10 C-2.25 3.375 -2.25 3.375 0 0 Z " fill="#31725E" transform="translate(93,169)"/>
<path d="M0 0 C0.33 1.32 0.66 2.64 1 4 C1.66 4 2.32 4 3 4 C3 5.65 3 7.3 3 9 C2.34 8.67 1.68 8.34 1 8 C0.34 8.66 -0.32 9.32 -1 10 C-0.67 6.7 -0.34 3.4 0 0 Z " fill="#528475" transform="translate(92,162)"/>
<path d="M0 0 C0.33 0.66 0.66 1.32 1 2 C1.66 2 2.32 2 3 2 C2.34 3.98 1.68 5.96 1 8 C0.34 7.67 -0.32 7.34 -1 7 C-0.67 4.69 -0.34 2.38 0 0 Z " fill="#49806F" transform="translate(117,164)"/>
<path d="M0 0 C0.33 0.66 0.66 1.32 1 2 C1.66 2 2.32 2 3 2 C3 2.66 3 3.32 3 4 C3.99 4.33 4.98 4.66 6 5 C5.34 6.32 4.68 7.64 4 9 C4 8.34 4 7.68 4 7 C3.34 6.67 2.68 6.34 2 6 C2 5.01 2 4.02 2 3 C1.34 3 0.68 3 0 3 C0 2.01 0 1.02 0 0 Z " fill="#30715D" transform="translate(98,158)"/>
<path d="M0 0 C0.99 0 1.98 0 3 0 C3.33 1.32 3.66 2.64 4 4 C2.35 4.33 0.7 4.66 -1 5 C-0.67 3.35 -0.34 1.7 0 0 Z " fill="#4C8071" transform="translate(96,143)"/>
<path d="M0 0 C0.99 0.66 1.98 1.32 3 2 C2.01 2.66 1.02 3.32 0 4 C-0.72382467 6.05925139 -0.72382467 6.05925139 -1 8 C-1.66 6.68 -2.32 5.36 -3 4 C-2.01 2.68 -1.02 1.36 0 0 Z " fill="#8EB1A7" transform="translate(77,85)"/>
</svg>
